<?xml version="1.0" encoding="utf-8"?>
<!-- Generator: Adobe Illustrator 24.0.0, SVG Export Plug-In . SVG Version: 6.00 Build 0)  -->
<svg version="1.1" xmlns="http://www.w3.org/2000/svg" xmlns:xlink="http://www.w3.org/1999/xlink" x="0px" y="0px"
	 viewBox="0 0 321 118" style="enable-background:new 0 0 321 118;" xml:space="preserve">
<style type="text/css">
	.st0{fill:#C7102E;}
	.st1{fill:#63666A;}
	.st2{fill:#E0E0E0;}
	.st3{fill:url(#SVGID_1_);}
	.st4{clip-path:url(#SVGID_3_);}
	.st5{fill:#FFFFFF;}
	.st6{opacity:0.82;}
	.st7{clip-path:url(#SVGID_7_);}
	.st8{opacity:0.23;fill:#B0FFF7;stroke:#808080;stroke-miterlimit:10;}
	.st9{opacity:0.45;fill:#C8102E;}
	.st10{fill:none;stroke:#999999;stroke-width:1.681;stroke-miterlimit:10;}
	.st11{fill:none;stroke:#F5F5F5;stroke-width:1.681;stroke-miterlimit:10;}
	.st12{fill:#F5F5F5;}
	.st13{fill:#579ADD;}
	.st14{fill:#4987CE;}
	.st15{fill:#4CAF50;}
	.st16{fill:#C8102E;}
	.st17{fill:#EAEAEA;}
	.st18{fill:none;stroke:#F5F5F5;stroke-width:2.9631;stroke-miterlimit:10;}
	.st19{fill:none;stroke:#FFFFFF;stroke-width:2.9631;stroke-miterlimit:10;}
	.st20{opacity:0.4;}
	.st21{clip-path:url(#SVGID_11_);}
	.st22{clip-path:url(#SVGID_13_);}
	.st23{clip-path:url(#SVGID_17_);}
	.st24{clip-path:url(#SVGID_19_);}
	.st25{clip-path:url(#SVGID_23_);}
	.st26{clip-path:url(#SVGID_25_);}
	.st27{clip-path:url(#SVGID_29_);}
	.st28{clip-path:url(#SVGID_31_);}
	.st29{opacity:0.7;}
	.st30{clip-path:url(#SVGID_35_);}
	.st31{opacity:0.5;clip-path:url(#SVGID_37_);}
	.st32{clip-path:url(#SVGID_39_);}
	.st33{opacity:0.3;}
	.st34{clip-path:url(#SVGID_43_);}
	.st35{clip-path:url(#SVGID_45_);}
	.st36{fill:#5B5B5E;}
	.st37{fill:none;stroke:#7C7C7C;stroke-width:0.997;stroke-miterlimit:10;}
	.st38{fill:#802321;}
	.st39{fill:#EAEAEA;stroke:#999999;stroke-width:1.1596;stroke-miterlimit:10;}
	.st40{fill:#E04B68;}
	.st41{clip-path:url(#SVGID_53_);}
	.st42{clip-path:url(#SVGID_57_);}
	.st43{fill:none;stroke:#A0A0A0;stroke-width:0.8051;stroke-miterlimit:10;}
	.st44{fill:#A0A0A0;}
	.st45{opacity:0.39;}
	.st46{clip-path:url(#SVGID_61_);}
	.st47{clip-path:url(#SVGID_65_);}
	.st48{clip-path:url(#SVGID_69_);}
	.st49{clip-path:url(#SVGID_73_);}
	.st50{clip-path:url(#SVGID_77_);}
	.st51{clip-path:url(#SVGID_81_);}
	.st52{clip-path:url(#SVGID_85_);}
	.st53{fill:#010308;}
	.st54{clip-path:url(#SVGID_89_);fill:#7E8DA1;}
	.st55{opacity:0.75;}
	.st56{clip-path:url(#SVGID_91_);fill:#25353E;}
	.st57{clip-path:url(#SVGID_91_);fill:#FDCB65;}
	.st58{clip-path:url(#SVGID_91_);fill:#FD4765;}
	.st59{clip-path:url(#SVGID_91_);fill:#CBDBE3;}
	.st60{clip-path:url(#SVGID_91_);fill:#1D5079;}
	.st61{clip-path:url(#SVGID_91_);fill:#FEFEFE;}
	.st62{clip-path:url(#SVGID_93_);fill:#25353E;}
	.st63{clip-path:url(#SVGID_93_);fill:#FDCB65;}
	.st64{clip-path:url(#SVGID_93_);fill:#FD4765;}
	.st65{clip-path:url(#SVGID_93_);fill:#CBDBE3;}
	.st66{clip-path:url(#SVGID_93_);fill:#1D5079;}
	.st67{clip-path:url(#SVGID_93_);fill:#FEFEFE;}
	.st68{clip-path:url(#SVGID_95_);}
	.st69{fill:none;stroke:#FFFFFF;stroke-width:1.1617;stroke-miterlimit:10;}
	.st70{clip-path:url(#SVGID_99_);}
	.st71{fill:#5B5B5B;}
	.st72{clip-path:url(#SVGID_103_);}
	.st73{clip-path:url(#SVGID_105_);}
	.st74{fill:none;stroke:#FFFFFF;stroke-width:0.75;stroke-miterlimit:10;}
	.st75{fill:none;stroke:#29ABE2;stroke-miterlimit:10;}
	.st76{fill:#F2F2F2;}
	.st77{fill:#5B5B5E;stroke:#C1C1C1;stroke-linecap:round;stroke-miterlimit:10;}
	.st78{fill:#CB1E1B;}
	.st79{fill:#5B5B5E;stroke:#7D7D7D;stroke-miterlimit:10;}
	.st80{fill:#941E1B;}
	.st81{clip-path:url(#SVGID_107_);}
	.st82{clip-path:url(#SVGID_109_);}
	.st83{clip-path:url(#SVGID_111_);}
	.st84{clip-path:url(#SVGID_113_);}
	.st85{fill:#B3B3B3;}
	.st86{display:none;}
	.st87{display:inline;opacity:0.47;fill:none;stroke:#000000;stroke-miterlimit:10;}
	.st88{fill:#ECECEC;}
	.st89{fill:none;stroke:#6F6F6E;stroke-width:0.5;stroke-miterlimit:10;}
	.st90{opacity:0.29;fill:#D3D3D3;}
	.st91{fill:none;stroke:#FFFFFF;stroke-width:2;stroke-linecap:square;stroke-miterlimit:10;}
	.st92{fill:none;stroke:#63666A;stroke-linecap:square;stroke-miterlimit:10;}
	.st93{fill:#5B5B5E;stroke:#7C7C7C;stroke-miterlimit:10;}
	.st94{clip-path:url(#SVGID_115_);}
	.st95{fill:none;stroke:#B3B3B3;stroke-miterlimit:10;}
	.st96{clip-path:url(#SVGID_117_);}
	.st97{clip-path:url(#SVGID_119_);}
	.st98{clip-path:url(#SVGID_121_);}
	.st99{fill:none;stroke:#4E6581;stroke-width:0.5;stroke-miterlimit:10;}
	.st100{fill:none;stroke:#010308;stroke-miterlimit:10;}
</style>
<g id="Inicio">
	<g>
		<polygon class="st5" points="142.46,82.78 106.94,82.78 106.94,47.36 115.74,47.36 115.74,73.93 133.67,73.93 133.67,47.36 
			142.46,47.36 		"/>
		<path class="st5" d="M187.29,47.28V82.7h-35.86V61.41h26.73v-5.79h-26.73v-8.35H187.29z M178.15,68.65h-17.59v6.13h17.59V68.65z"
			/>
		<polygon class="st5" points="205.31,61.5 232.04,61.5 232.04,82.78 196.17,82.78 196.17,74.78 222.9,74.78 222.9,68.65 
			196.17,68.65 196.17,47.36 232.04,47.36 232.04,55.62 205.31,55.62 		"/>
		<path class="st5" d="M276.7,47.28V82.7h-35.86V61.41h26.73v-5.79h-26.73v-8.35H276.7z M267.56,68.65h-17.59v6.13h17.59V68.65z"/>
		<path class="st5" d="M321.44,35.53v47.25h-35.86v-35.5h26.73V35.53H321.44z M312.3,56.13h-17.93v17.79h17.93V56.13z"/>
		<polygon class="st5" points="61.36,118.38 47.36,109.85 47.36,55.54 61.36,47.4 		"/>
		<polygon class="st5" points="124.24,91.96 109.41,91.96 109.41,99.35 124.24,99.35 124.24,101.81 106.94,101.81 106.94,89.49 
			124.24,89.49 		"/>
		<path class="st5" d="M135.11,89.49h17.3v12.32h-17.3V89.49z M137.58,99.35h12.36v-7.39h-12.36V99.35z"/>
		<polygon class="st5" points="165.75,94.42 165.75,101.81 163.28,101.81 163.28,89.49 165.75,89.49 171.93,98.73 178.11,89.49 
			180.58,89.49 180.58,101.81 178.11,101.81 178.11,94.42 173.17,101.81 170.7,101.81 		"/>
		<path class="st5" d="M193.93,101.81h-2.47V89.49h17.3v7.39h-14.83V101.81z M193.93,94.42h12.36v-2.46h-12.36V94.42z"/>
		<polygon class="st5" points="219.63,89.49 222.1,89.49 222.1,99.35 234.45,99.35 234.45,89.49 236.92,89.49 236.92,101.81 
			219.63,101.81 		"/>
		<polygon class="st5" points="247.8,89.49 265.1,89.49 265.1,91.96 257.68,91.96 257.68,101.81 255.21,101.81 255.21,91.96 
			247.8,91.96 		"/>
		<polygon class="st5" points="293.27,96.89 278.44,96.89 278.44,99.35 293.27,99.35 293.27,101.81 275.97,101.81 275.97,89.49 
			293.27,89.49 293.27,91.96 278.44,91.96 278.44,94.42 293.27,94.42 		"/>
		<path class="st5" d="M306.61,101.81h-2.47V89.49h17.3v7.39h-2.47l2.47,4.93h-2.77l-2.47-4.93h-9.59V101.81z M306.61,94.42h12.36
			v-2.46h-12.36V94.42z"/>
		<polygon class="st5" points="47.36,0.3 -0.29,27.72 -0.29,82.57 41.28,106.5 41.28,89.8 14.22,74.23 14.22,36.07 47.36,16.99 
			80.49,36.07 80.49,74.23 67.7,81.59 67.7,98.29 95,82.57 95,27.72 		"/>
	</g>
</g>
<g id="Productos">
</g>
<g id="Capa_4" class="st86">
</g>
<g id="Prev">
</g>
</svg>
